<svg width="24" height="24" viewBox="0 0 24 24" fill="none" xmlns="http://www.w3.org/2000/svg"><path d="m9 14.9.2-1-.8-.7-2.7-2.4 3.5-.3 1.1-.1.4-1L12 6.2l1.3 3.3.4 1 1.1.1 3.5.3-2.8 2.4-.8.7.2 1 .8 3.5-2.9-1.9-.8-.6-.9.6-2.9 1.9.8-3.6Zm.1-6-7.6.5 5.8 5.1-1.8 7.6L12 18l6.5 4.1-1.8-7.6 5.8-5.1-7.6-.6L12 1.6 9.1 8.9Z" fill="#CF9"/><path d="M8.5 14.5 4 10l5.5-.5 2.5-6 2.5 6 5.5.5-4 4.5 1.5 6L12 17l-5 3.5 1.5-6Z" fill="#CF9" fill-opacity=".2"/><path opacity=".3" d="M12 3.3 9.6 9.4l-6.3.4 4.8 4.3-1.5 6.3L12 17l5.4 3.4-1.5-6.3 4.8-4.3-6.3-.4L12 3.3Z" fill="#CF9"/></svg>