<svg width="24" height="24" viewBox="0 0 24 24" fill="none" xmlns="http://www.w3.org/2000/svg"><path d="M6 9.5H4v6h2v-6Zm14 0h-2v6h2v-6Zm-2.5 0h-11v6h11v-6Zm1.1 7.9L20 16h-4c1.1 0 2 .6 2.6 1.4Zm-13.2 0C6 16.6 6.9 16 8 16H4l1.4 1.4ZM16 16H8c1.7 0 3 1.3 3 3h2c0-1.7 1.3-3 3-3Z" fill="#E6E6E6"/><path d="M16 18c.6 0 1 .4 1 1s-.4 1-1 1-1-.4-1-1 .4-1 1-1Zm0-1c-1.1 0-2 .9-2 2s.9 2 2 2 2-.9 2-2-.9-2-2-2Zm-8 1c.6 0 1 .4 1 1s-.4 1-1 1-1-.4-1-1 .4-1 1-1Zm0-1c-1.1 0-2 .9-2 2s.9 2 2 2 2-.9 2-2-.9-2-2-2ZM5 9l5-5 3 2 2-1 4 4H5Z" fill="#E6E6E6"/></svg>